<?xml version="1.0" encoding="UTF-8" standalone="no"?>
<!-- Created with Inkscape (http://www.inkscape.org/) -->

<svg
   xmlns:dc="http://purl.org/dc/elements/1.1/"
   xmlns:cc="http://creativecommons.org/ns#"
   xmlns:rdf="http://www.w3.org/1999/02/22-rdf-syntax-ns#"
   xmlns:svg="http://www.w3.org/2000/svg"
   xmlns="http://www.w3.org/2000/svg"
   xmlns:sodipodi="http://sodipodi.sourceforge.net/DTD/sodipodi-0.dtd"
   xmlns:inkscape="http://www.inkscape.org/namespaces/inkscape"
   width="300"
   height="300"
   viewBox="0 0 79.374998 79.375002"
   version="1.1"
   id="svg867"
   inkscape:export-filename="C:\Users\willy\manifier.png"
   inkscape:export-xdpi="96"
   inkscape:export-ydpi="96"
   inkscape:version="0.92.3 (2405546, 2018-03-11)"
   sodipodi:docname="magnifier.svg">
  <defs
     id="defs861" />
  <sodipodi:namedview
     id="base"
     pagecolor="#000000"
     bordercolor="#666666"
     borderopacity="1.0"
     inkscape:pageopacity="0.49803922"
     inkscape:pageshadow="2"
     inkscape:zoom="2.8"
     inkscape:cx="72.078774"
     inkscape:cy="112.1055"
     inkscape:document-units="mm"
     inkscape:current-layer="layer1"
     showgrid="false"
     units="px"
     inkscape:window-width="1680"
     inkscape:window-height="987"
     inkscape:window-x="-8"
     inkscape:window-y="-8"
     inkscape:window-maximized="1" />
  <metadata
     id="metadata864">
    <rdf:RDF>
      <cc:Work
         rdf:about="">
        <dc:format>image/svg+xml</dc:format>
        <dc:type
           rdf:resource="http://purl.org/dc/dcmitype/StillImage" />
        <dc:title></dc:title>
      </cc:Work>
    </rdf:RDF>
  </metadata>
  <g
     inkscape:label="圖層 1"
     inkscape:groupmode="layer"
     id="layer1"
     transform="translate(0,-217.62498)">
    <path
       style="fill:#ffffff;stroke-width:0.08068759;fill-opacity:1"
       d="m 49.846575,270.51592 c -0.06665,-0.0258 -2.109476,-2.02603 -4.539603,-4.44493 l -4.418416,-4.39801 -0.890208,0.42163 c -5.126632,2.42815 -11.121013,-0.0734 -13.043766,-5.44336 -0.494189,-1.38019 -0.641583,-3.49995 -0.340744,-4.90044 0.79822,-3.71593 3.452647,-6.46229 7.149668,-7.39728 0.591759,-0.14965 0.908752,-0.27393 2.186494,-0.27011 1.351838,0.004 1.570625,0.12426 2.286293,0.31613 3.574148,0.95823 6.2,3.71175 6.971998,7.31097 0.176575,0.82324 0.199082,2.74564 0.04151,3.54568 -0.160343,0.81408 -0.537759,1.91159 -0.89914,2.61467 l -0.329157,0.64036 4.358372,4.3558 c 2.397108,2.39569 4.39852,4.43502 4.447583,4.53182 0.04906,0.0968 0.08921,0.32997 0.08921,0.51812 0,0.33183 -0.03357,0.37584 -1.117062,1.46412 -1.060225,1.06493 -1.135243,1.12354 -1.474452,1.15187 -0.196566,0.0164 -0.411924,0.009 -0.478577,-0.017 z m -11.967557,-9.34251 c 1.799178,-0.45502 3.486251,-1.63577 4.52901,-3.16971 2.692975,-3.96153 1.269899,-9.35214 -3.024003,-11.45494 -1.105835,-0.54155 -1.861438,-0.72831 -3.150883,-0.77879 -2.527579,-0.0989 -4.654569,0.82446 -6.305664,2.73755 -1.813029,2.10072 -2.365467,5.11738 -1.413562,7.71893 1.056614,2.88773 3.541116,4.80744 6.709328,5.18414 0.578777,0.0688 1.919212,-0.0509 2.655774,-0.23718 z m 4.697879,-6.42364 c -0.285585,-0.14413 -0.40291,-0.42934 -0.404926,-0.98437 -0.0043,-1.18381 -0.656922,-2.84715 -1.515048,-3.86142 -0.668215,-0.78979 -0.715685,-0.89398 -0.557789,-1.22423 0.144604,-0.30245 0.439264,-0.41919 0.767502,-0.30404 0.114205,0.0401 0.4215,0.3263 0.682878,0.63609 1.117891,1.32497 1.747473,2.88126 1.884412,4.65821 0.06969,0.44316 0.106226,0.63622 -0.194562,0.93623 -0.273329,0.27262 -0.366619,0.29283 -0.66247,0.14353 z"
       id="path880"
       inkscape:connector-curvature="0"
       sodipodi:nodetypes="cccssscccccccscsccccccccsccccscccccccc" />
  </g>
</svg>
